<svg width="24" height="24" viewBox="0 0 24 24" fill="none" xmlns="http://www.w3.org/2000/svg">
    <style>
        .st0 {
            fill: #FFFFFF;
        }
    </style>
    <path class="st0" fill-rule="evenodd" clip-rule="evenodd" d="M10.3158 4V20H20V4H10.3158ZM9.31579 2C8.7635 2 8.31579 2.44772 8.31579 3V21C8.31579 21.5523 8.7635 22 9.31579 22H21C21.5523 22 22 21.5523 22 21V3C22 2.44772 21.5523 2 21 2H9.31579Z" fill="white" fill-opacity="0.5"/>
    <path class="st0" fill-rule="evenodd" clip-rule="evenodd" d="M13.2853 12.6558C12.9049 12.2671 12.9049 11.6457 13.2853 11.257L15.2853 9.21337C15.6716 8.81866 16.3047 8.81183 16.6994 9.19813C17.0941 9.58442 17.101 10.2175 16.7147 10.6123L15.3992 11.9564L16.7147 13.3005C17.101 13.6953 17.0941 14.3284 16.6994 14.7147C16.3047 15.101 15.6716 15.0941 15.2853 14.6994L13.2853 12.6558Z" fill="white" fill-opacity="0.5"/>
    <path class="st0" d="M2 3C2 2.44772 2.44772 2 3 2H10.4211V22H3C2.44772 22 2 21.5523 2 21V3Z" fill="white"/>
</svg>

