<svg width="24" height="24" viewBox="0 0 24 24" fill="none" xmlns="http://www.w3.org/2000/svg">
    <style>
        .st0 {
            fill: #FFFFFF;
        }
    </style>
<path class="st0" d="M5 3.00012C3.89543 3.00012 3 3.89555 3 5.00012V9.00012C3 9.55241 3.44772 10.0001 4 10.0001H9C9.55228 10.0001 10 9.55241 10 9.00012V4.00012C10 3.44784 9.55228 3.00012 9 3.00012H5Z" fill="white" fill-opacity="0.25"/>
<path class="st0" d="M4 14.0001C3.44772 14.0001 3 14.4478 3 15.0001V19.0001C3 20.1047 3.89543 21.0001 5 21.0001H9C9.55228 21.0001 10 20.5524 10 20.0001V15.0001C10 14.4478 9.55228 14.0001 9 14.0001H4Z" fill="white" fill-opacity="0.25"/>
<path class="st0" d="M14 4.00012C14 3.44784 14.4477 3.00012 15 3.00012H19C20.1046 3.00012 21 3.89555 21 5.00012V9.00012C21 9.55241 20.5523 10.0001 20 10.0001H15C14.4477 10.0001 14 9.55241 14 9.00012V4.00012Z" fill="white" fill-opacity="0.25"/>
<path class="st0" d="M15 14.0001C14.4477 14.0001 14 14.4478 14 15.0001V20.0001C14 20.5524 14.4477 21.0001 15 21.0001H19C20.1046 21.0001 21 20.1047 21 19.0001V15.0001C21 14.4478 20.5523 14.0001 20 14.0001H15Z" fill="white" fill-opacity="0.25"/>
<path class="st0" fill-rule="evenodd" clip-rule="evenodd" d="M4.5 3.00012C3.67157 3.00012 3 3.67169 3 4.50012V19.5001C3 20.3285 3.67157 21.0001 4.5 21.0001H19.5C20.3284 21.0001 21 20.3286 21 19.5001V4.50012C21 3.67169 20.3284 3.00012 19.5 3.00012H4.5ZM19.5 4.50012H15V9.00012H19.5V4.50012ZM19.5 14.0001V10.0001H15C14.4477 10.0001 14 9.55241 14 9.00012V4.50012H10V9.00012C10 9.55241 9.55228 10.0001 9 10.0001H4.5L4.5 14.0001H9C9.55228 14.0001 10 14.4478 10 15.0001V19.5001H14V15.0001C14 14.4478 14.4477 14.0001 15 14.0001H19.5ZM19.5 15.0001V19.5001H15V15.0001H19.5ZM9 19.5001V15.0001H4.5L4.5 19.5001H9ZM4.5 4.50012L4.5 9.00012H9V4.50012H4.5Z" fill="white"/>
</svg>
