<svg width="24" height="24" viewBox="0 0 24 24" fill="none" xmlns="http://www.w3.org/2000/svg">
    <style>
        .st0 {
            fill: white;
        }
    </style>
    <path class="st0" fill-rule="evenodd" clip-rule="evenodd" d="M9.99876 4.19407C9.85385 3.49849 9.24081 3 8.53029 3H2.5C1.67157 3 1 3.67157 1 4.5V8.5H3V6.5H11.6989C10.9884 6.5 10.3753 6.00151 10.2304 5.30593L9.99876 4.19407Z" fill="white" fill-opacity="0.5"/>
    <path class="st0" fill-rule="evenodd" clip-rule="evenodd" d="M13 10.5C13 9.94772 12.5523 9.5 12 9.5C11.4477 9.5 11 9.94772 11 10.5V12.5H9C8.44772 12.5 8 12.9477 8 13.5C8 14.0523 8.44772 14.5 9 14.5H11V16.5C11 17.0523 11.4477 17.5 12 17.5C12.5523 17.5 13 17.0523 13 16.5V14.5H15C15.5523 14.5 16 14.0523 16 13.5C16 12.9477 15.5523 12.5 15 12.5H13V10.5Z" fill="white" fill-opacity="0.5"/>
    <path class="st0" fill-rule="evenodd" clip-rule="evenodd" d="M3 6.5C1.89543 6.5 1 7.39543 1 8.5V19C1 20.1046 1.89543 21 3 21H21C22.1046 21 23 20.1046 23 19V8.5C23 7.39543 22.1046 6.5 21 6.5H3ZM12 9.5C12.5523 9.5 13 9.94772 13 10.5V12.5H15C15.5523 12.5 16 12.9477 16 13.5C16 14.0523 15.5523 14.5 15 14.5H13V16.5C13 17.0523 12.5523 17.5 12 17.5C11.4477 17.5 11 17.0523 11 16.5V14.5H9C8.44772 14.5 8 14.0523 8 13.5C8 12.9477 8.44772 12.5 9 12.5H11V10.5C11 9.94772 11.4477 9.5 12 9.5Z" fill="white"/>
</svg>

