<svg width="24" height="24" viewBox="0 0 24 24" fill="none" xmlns="http://www.w3.org/2000/svg">
    <style type="text/css">
        .st0{fill:#FFFFFF;}
    </style>
<path class="st0" fill-rule="evenodd" clip-rule="evenodd" d="M4 4.25C3.58579 4.25 3.25 4.58579 3.25 5V9C3.25 9.41421 3.58579 9.75 4 9.75H8C8.41421 9.75 8.75 9.41421 8.75 9V7.5H10.7929L10.1464 8.14648L10.8536 8.85359L12.2071 7.5H12.25V9C12.25 9.41421 12.5858 9.75 13 9.75H18C20.0711 9.75 21.75 8.07107 21.75 6V5C21.75 4.58579 21.4142 4.25 21 4.25H13C12.5858 4.25 12.25 4.58579 12.25 5V6.5H12.2071L10.8536 5.14648L10.1464 5.85359L10.7929 6.5H8.75V5C8.75 4.58579 8.41421 4.25 8 4.25H4ZM4.75 8.25V5.75H7.25V8.25H4.75ZM13.75 8.25V5.75H20.25V6C20.25 7.24264 19.2426 8.25 18 8.25H13.75Z" fill="white"/>
<path class="st0" fill-rule="evenodd" clip-rule="evenodd" d="M10.1464 18.8536L8.79286 17.5H8.75V19C8.75 19.4142 8.41421 19.75 8 19.75H4C3.58579 19.75 3.25 19.4142 3.25 19V15C3.25 14.5858 3.58579 14.25 4 14.25H8C8.41421 14.25 8.75 14.5858 8.75 15V16.5H8.79293L10.1464 15.1465L10.8536 15.8536L10.2071 16.5H12.25V15C12.25 14.5858 12.5858 14.25 13 14.25H21C21.4142 14.25 21.75 14.5858 21.75 15V16C21.75 18.0711 20.0711 19.75 18 19.75H13C12.5858 19.75 12.25 19.4142 12.25 19V17.5H10.2071L10.8536 18.1465L10.1464 18.8536ZM4.75 15.75V18.25H7.25V15.75H4.75ZM13.75 18.25V15.75H20.25V16C20.25 17.2426 19.2426 18.25 18 18.25H13.75Z" fill="white"/>
</svg>
