<svg width="24" height="24" viewBox="0 0 24 24" fill="none" xmlns="http://www.w3.org/2000/svg">
<path d="M19.7314 6.44521L15.5548 2.26859C14.981 1.69483 14 2.10119 14 2.9126V7.08922C14 7.59223 14.4078 8 14.9108 8H19.0874C19.8988 8 20.3052 7.01897 19.7314 6.44521Z" fill="white"/>
<path fill-rule="evenodd" clip-rule="evenodd" d="M20 6.90526V21.0879C20 21.6402 19.5523 22.0879 19 22.0879H5C4.44772 22.0879 4 21.6402 4 21.0879V3.08789C4 2.53561 4.44772 2.08789 5 2.08789H15C14.663 2.23696 14.4053 2.56633 14.4053 3.0021V7C14.4053 7.55228 14.853 8 15.4053 8L19.0858 7.5C19.5216 7.5 19.8509 7.24229 20 6.90526Z" fill="white" fill-opacity="0.25"/>
<path fill-rule="evenodd" clip-rule="evenodd" d="M15.2526 15.0359C15.5825 14.706 15.5825 14.171 15.2526 13.8411C14.9226 13.5111 14.3877 13.5111 14.0578 13.8411L12.8715 15.0273L12.8715 10.8449C12.8715 10.3783 12.4933 10 12.0267 10C11.5601 10 11.1818 10.3783 11.1818 10.8449L11.1818 15.0806L9.94232 13.8411C9.61238 13.5111 9.07745 13.5111 8.74751 13.8411C8.41757 14.171 8.41757 14.706 8.74751 15.0359L11.3363 17.6246C11.7029 17.9912 12.2972 17.9912 12.6638 17.6246L15.2526 15.0359Z" fill="white"/>
</svg>
