<svg width="24" height="24" viewBox="0 0 24 24" fill="none" xmlns="http://www.w3.org/2000/svg">
    <style>
        .st0 {
            fill: #FFFFFF;
        }
    </style>
<path class="st0" d="M19.5145 15.3346H15.211C14.9591 15.3346 14.7175 15.4347 14.5393 15.6129C14.3612 15.7911 14.2611 16.0327 14.2611 16.2846C14.2611 16.5365 14.3612 16.7782 14.5393 16.9563C14.7175 17.1345 14.9591 17.2346 15.211 17.2346H17.491C16.4431 18.3297 15.0917 19.0865 13.6104 19.4077C12.1291 19.7288 10.5856 19.5998 9.17829 19.037C7.77093 18.4743 6.56398 17.5036 5.71251 16.2496C4.86105 14.9957 4.40397 13.5158 4.4 12.0001C4.4 11.7481 4.29991 11.5065 4.12175 11.3283C3.94359 11.1502 3.70196 11.0501 3.45 11.0501C3.19804 11.0501 2.95641 11.1502 2.77825 11.3283C2.60009 11.5065 2.5 11.7481 2.5 12.0001C2.50502 13.8552 3.05311 15.6684 4.07662 17.2156C5.10014 18.7629 6.55428 19.9767 8.2596 20.7071C9.96493 21.4375 11.8468 21.6527 13.673 21.326C15.4991 20.9992 17.1897 20.145 18.536 18.8686V20.5501C18.536 20.8021 18.6361 21.0437 18.8143 21.2218C18.9925 21.3999 19.2341 21.5 19.486 21.5C19.7379 21.5 19.9795 21.3999 20.1577 21.2218C20.3359 21.0437 20.436 20.8021 20.436 20.5501V16.2751C20.4337 16.0297 20.3364 15.7946 20.1646 15.6193C19.9928 15.444 19.7598 15.342 19.5145 15.3346ZM12 2.5C9.56457 2.50695 7.22482 3.44898 5.464 5.13152V3.45001C5.46396 3.19807 5.36386 2.95647 5.1857 2.77834C5.00754 2.60022 4.76593 2.50015 4.514 2.50015C4.26207 2.50015 4.02046 2.60022 3.8423 2.77834C3.66414 2.95647 3.56404 3.19807 3.564 3.45001V7.72504C3.564 7.977 3.66409 8.21864 3.84225 8.3968C4.02041 8.57496 4.26204 8.67505 4.514 8.67505H8.789C9.04096 8.67505 9.28259 8.57496 9.46075 8.3968C9.63891 8.21864 9.739 7.977 9.739 7.72504C9.739 7.47308 9.63891 7.23144 9.46075 7.05328C9.28259 6.87512 9.04096 6.77503 8.789 6.77503H6.509C7.55634 5.6805 8.90689 4.92394 10.3873 4.60247C11.8677 4.28099 13.4104 4.40927 14.8173 4.97084C16.2243 5.5324 17.4313 6.50163 18.2835 7.75411C19.1357 9.0066 19.5941 10.4852 19.6 12.0001C19.6 12.252 19.7001 12.4937 19.8782 12.6718C20.0564 12.85 20.298 12.9501 20.55 12.9501C20.802 12.9501 21.0436 12.85 21.2218 12.6718C21.3999 12.4937 21.5 12.252 21.5 12.0001C21.5 9.4805 20.4991 7.06412 18.7175 5.28251C16.9359 3.5009 14.5196 2.5 12 2.5Z" fill="white"/>
<path class="st0"  fill-rule="evenodd" clip-rule="evenodd" d="M12 12.8499C12.4695 12.8499 12.85 12.4693 12.85 11.9999C12.85 11.5305 12.4695 11.1499 12 11.1499C11.5306 11.1499 11.15 11.5305 11.15 11.9999C11.15 12.4693 11.5306 12.8499 12 12.8499ZM12 14.8499C13.574 14.8499 14.85 13.5739 14.85 11.9999C14.85 10.4259 13.574 9.1499 12 9.1499C10.426 9.1499 9.15002 10.4259 9.15002 11.9999C9.15002 13.5739 10.426 14.8499 12 14.8499Z" fill="white" fill-opacity="0.5"/>
</svg>
