<svg width="24" height="24" viewBox="0 0 24 24" fill="none" xmlns="http://www.w3.org/2000/svg">
    <style>
        .st0 {
            fill: #FFFFFF;
        }
    </style>
<path class="st0" d="M1.5 5.30313C1.5 4.69386 1.99391 4.19995 2.60317 4.19995H20.9683C21.5775 4.19995 22.0714 4.69386 22.0714 5.30313V5.30313C22.0714 5.91239 21.5775 6.4063 20.9683 6.4063H2.60318C1.99391 6.4063 1.5 5.91239 1.5 5.30313V5.30313Z" fill="white" fill-opacity="0.5"/>
<path class="st0" d="M1.5 11.922C1.5 11.3128 1.99391 10.8188 2.60317 10.8188H8.96826C9.57752 10.8188 10.0714 11.3128 10.0714 11.922V11.922C10.0714 12.5313 9.57752 13.0252 8.96825 13.0252H2.60317C1.99391 13.0252 1.5 12.5313 1.5 11.922V11.922Z" fill="white" fill-opacity="0.5"/>
<path class="st0" d="M1.5 18.5414C1.5 17.9321 1.99391 17.4382 2.60317 17.4382H8.96826C9.57752 17.4382 10.0714 17.9321 10.0714 18.5414V18.5414C10.0714 19.1507 9.57752 19.6446 8.96825 19.6446H2.60317C1.99391 19.6446 1.5 19.1507 1.5 18.5414V18.5414Z" fill="white" fill-opacity="0.5"/>
<path class="st0" fill-rule="evenodd" clip-rule="evenodd" d="M16.5 16.9937C18.1569 16.9937 19.5 15.6505 19.5 13.9937C19.5 12.3368 18.1569 10.9937 16.5 10.9937C14.8431 10.9937 13.5 12.3368 13.5 13.9937C13.5 15.6505 14.8431 16.9937 16.5 16.9937ZM16.5 18.9937C19.2614 18.9937 21.5 16.7551 21.5 13.9937C21.5 11.2322 19.2614 8.99365 16.5 8.99365C13.7386 8.99365 11.5 11.2322 11.5 13.9937C11.5 16.7551 13.7386 18.9937 16.5 18.9937Z" fill="white"/>
<path class="st0" fill-rule="evenodd" clip-rule="evenodd" d="M18.1379 16.6968C18.578 16.3632 19.2053 16.4495 19.5389 16.8896L21.6478 19.6713C21.9814 20.1114 21.8951 20.7387 21.455 21.0723C21.0149 21.406 20.3877 21.3197 20.054 20.8796L17.9452 18.0978C17.6115 17.6577 17.6978 17.0305 18.1379 16.6968Z" fill="white"/>
</svg>
