<svg width="24" height="24" viewBox="0 0 24 24" fill="none" xmlns="http://www.w3.org/2000/svg">
    <style>
        .st0 {
            fill: #FFFFFF;
        }
    </style>
<path class="st0" d="M2 6C2 5.17157 2.67157 4.5 3.5 4.5H20.5C21.3284 4.5 22 5.17157 22 6V6C22 6.82843 21.3284 7.5 20.5 7.5H3.5C2.67157 7.5 2 6.82843 2 6V6Z" fill="white"/>
<path class="st0" d="M5 12C5 11.1716 5.67155 10.5001 6.49996 10.5001L17.5 10.5C18.3284 10.5 19 11.1716 19 12V12C19 12.8284 18.3284 13.4999 17.5 13.4999L6.49997 13.5C5.67156 13.5 5 12.8284 5 12V12Z" fill="white" fill-opacity="0.5"/>
<path class="st0" d="M7 18C7 17.1716 7.67157 16.5 8.5 16.5H15.5C16.3284 16.5 17 17.1716 17 18V18C17 18.8284 16.3284 19.5 15.5 19.5H8.5C7.67157 19.5 7 18.8284 7 18V18Z" fill="white" fill-opacity="0.25"/>
</svg>
