<svg width="24" height="24" viewBox="0 0 24 24" fill="none" xmlns="http://www.w3.org/2000/svg">
    <style>
        .st0 {
            fill: #FFFFFF;
        }
    </style>
<path class="st0" d="M2.5 4C2.5 3.44772 2.94772 3 3.5 3H20.5C21.0523 3 21.5 3.44772 21.5 4V10C21.5 10.5523 21.0523 11 20.5 11H3.5C2.94771 11 2.5 10.5523 2.5 10V4Z" fill="white" fill-opacity="0.5"/>
<path class="st0" d="M2.5 14C2.5 13.4477 2.94772 13 3.5 13H11.5C12.0523 13 12.5 13.4477 12.5 14V20C12.5 20.5523 12.0523 21 11.5 21H3.5C2.94772 21 2.5 20.5523 2.5 20V14Z" fill="white"/>
<path class="st0" fill-rule="evenodd" clip-rule="evenodd" d="M18.3571,14.8571C18.3571,14.3838 17.9734,14 17.5,14C17.0266,14 16.6429,14.3838 16.6429,14.8571L16.6429,16.1428L15.3571,16.1428C14.8838,16.1428 14.5,16.5266 14.5,17C14.5,17.4734 14.8838,17.8571 15.3571,17.8571L16.6429,17.8571L16.6429,19.1429C16.6429,19.6162 17.0266,20 17.5,20C17.9734,20 18.3571,19.6162 18.3571,19.1429L18.3571,17.8571L19.6429,17.8571C20.1162,17.8571 20.5,17.4734 20.5,17C20.5,16.5266 20.1162,16.1428 19.6429,16.1428L18.3571,16.1428L18.3571,14.8571z" fill="white" transform="rotate(45 17.5 17)"></path>
</svg>
