<svg width="24" height="24" viewBox="0 0 24 24" fill="none" xmlns="http://www.w3.org/2000/svg">
    <style>
        .st0 {
            fill: #FFFFFF;
        }
    </style>
<path class="st0" d="M1.5 5.30313C1.5 4.69386 1.99391 4.19995 2.60317 4.19995H12.9683C13.5775 4.19995 14.0714 4.69386 14.0714 5.30313V5.30313C14.0714 5.91239 13.5775 6.4063 12.9683 6.4063H2.60317C1.99391 6.4063 1.5 5.91239 1.5 5.30313V5.30313Z" fill="white" fill-opacity="0.5"/>
<path class="st0" d="M1.5 11.922C1.5 11.3128 1.99391 10.8188 2.60317 10.8188H12.9683C13.5775 10.8188 14.0714 11.3128 14.0714 11.922V11.922C14.0714 12.5313 13.5775 13.0252 12.9683 13.0252H2.60317C1.99391 13.0252 1.5 12.5313 1.5 11.922V11.922Z" fill="white" fill-opacity="0.5"/>
<path class="st0" d="M1.5 18.5414C1.5 17.9321 1.99391 17.4382 2.60317 17.4382H12.9683C13.5775 17.4382 14.0714 17.9321 14.0714 18.5414V18.5414C14.0714 19.1507 13.5775 19.6446 12.9683 19.6446H2.60317C1.99391 19.6446 1.5 19.1507 1.5 18.5414V18.5414Z" fill="white" fill-opacity="0.5"/>
<path class="st0" d="M18.5 4.7063C18.5 4.15401 18.9477 3.7063 19.5 3.7063V3.7063C20.0523 3.7063 20.5 4.15401 20.5 4.7063V19.1507C20.5 19.703 20.0523 20.1507 19.5 20.1507V20.1507C18.9477 20.1507 18.5 19.703 18.5 19.1507V4.7063Z" fill="white"/>
<path class="st0" fill-rule="evenodd" clip-rule="evenodd" d="M18.1442 3.28047C18.7712 2.27988 20.2289 2.27988 20.8558 3.28047L22.8474 6.45884C23.1406 6.92684 22.999 7.54396 22.531 7.8372C22.063 8.13045 21.4459 7.98879 21.1526 7.52079L19.5 4.88336L17.8474 7.52079C17.5542 7.98879 16.937 8.13045 16.469 7.8372C16.001 7.54396 15.8594 6.92684 16.1526 6.45884L18.1442 3.28047Z" fill="white"/>
<path class="st0" fill-rule="evenodd" clip-rule="evenodd" d="M20.8558 20.5096C20.2289 21.5102 18.7712 21.5102 18.1442 20.5096L16.1526 17.3312C15.8594 16.8632 16.001 16.2461 16.469 15.9528C16.937 15.6596 17.5542 15.8012 17.8474 16.2692L19.5 18.9067L21.1526 16.2692C21.4459 15.8013 22.063 15.6596 22.531 15.9528C22.999 16.2461 23.1407 16.8632 22.8474 17.3312L20.8558 20.5096Z" fill="white"/>
</svg>
