<svg viewBox="0 0 400 400" xmlns="http://www.w3.org/2000/svg"><g transform="matrix(2,0,0,2,0,0)"><path d="M150.67,80.308c1.763.44,4.667,1.555,6.352,1.892a12.51,12.51,0,0,0-.519,1.893,26.787,26.787,0,0,1-6.118-1.686S150.592,81.293,150.67,80.308Z" fill="#999999"></path><path d="M66.83,82.2c-1.763.415-4.589,1.193-6.222,1.659a14,14,0,0,0-.129-2.022,28.107,28.107,0,0,1,6.247-1.944A11.857,11.857,0,0,0,66.83,82.2Z" fill="#999999"></path><path d="M60.193,100.4c-1.788.311-4.381.778-6.04,1.141a18.525,18.525,0,0,0-.285-2.2,28.079,28.079,0,0,1,6.377-1.244A9.835,9.835,0,0,0,60.193,100.4Z" fill="#999999"></path><path d="M69.371,114.632c-1.815.155-4.77.389-6.482.6a16.166,16.166,0,0,0-.1-2.2,28.413,28.413,0,0,1,6.455-.726S69.371,113.465,69.371,114.632Z" fill="#999999"></path><path d="M143.282,92.492c1.788.233,4.822.985,6.533,1.141a13.437,13.437,0,0,0-.312,1.918,27.2,27.2,0,0,1-6.273-.959A17.173,17.173,0,0,0,143.282,92.492Z" fill="#999999"></path><path d="M100.688,70.664c2.929-.208,7.958-.026,10.732-.363a31.472,31.472,0,0,0,.1,3.448c-2.956-.1-7.933.492-10.629.337A27.2,27.2,0,0,0,100.688,70.664Z" fill="#999999"></path><path d="M98.769,89.718c4.018-.311,10.915-.052,14.674-.492a42.023,42.023,0,0,0,.155,4.718c-4.044-.13-10.837.674-14.544.441A39.5,39.5,0,0,0,98.769,89.718Z" fill="#999999"></path><path d="M102.191,107.14c2.93-.208,7.959-.027,10.733-.363a31.454,31.454,0,0,0,.1,3.447c-2.956-.1-7.933.493-10.629.337A22.838,22.838,0,0,0,102.191,107.14Z" fill="#999999"></path><path d="M141.545,105.091c1.814.208,4.614.882,6.325,1.012a16.022,16.022,0,0,0-.233,2.048,57.677,57.677,0,0,1-6.3-.908A9.283,9.283,0,0,0,141.545,105.091Z" fill="#999999"></path><path d="M139.989,117.717c1.815.207,4.641.959,6.352,1.063a19.761,19.761,0,0,0,0,2.151,28.147,28.147,0,0,1-6.533-1.063A12.348,12.348,0,0,0,139.989,117.717Z" fill="#999999"></path><path d="M5.622,104.236c3.733-2.437,7.752-4.615,11.485-7.051a6.682,6.682,0,0,1-.285-2.023Z" fill="#999999"></path><path d="M5,104.236c0-.337,4.381-10.577,5.7-15.658,0,0,1.634.8,2.593,1.322-.415.83-2.644,6.445-2.515,6.118,1.633-1.685,3.319-3.344,5.03-4.952.487,0,3.7.856,3.6.83C14.644,95.785,5,104.573,5,104.236Z" fill="#999999"></path><path d="M184.165,114.4a22.4,22.4,0,0,1-20.922,6.041l8.892,11.458c.1-.006,15.236,2.682,22.373-7.362C194.508,124.535,187.146,118,184.165,114.4Zm-4.77,13.688c-.389-.362-2.645-2.877-3.4-3.733,0,.321,5.715-1.023,6.61-1.918A22.23,22.23,0,0,1,179.4,128.086Z" fill="#999999"></path><path d="M166.873,25.373c-1.05-1.977-3.474-5.91-3.578-6.014a.812.812,0,0,0-.44-.233c-2.956-.026-6.17,1.088-8.867,2.151a24.865,24.865,0,0,0-7.647,4.252.363.363,0,0,0-.026.544c2.9,3.474,4.77,7.778,6.636,11.9a.773.773,0,0,0,.934.389c3.111-1.141,12.806-6.093,15.191-6.715C169.465,31.569,167.792,27.1,166.873,25.373Zm-12.236-3.344a46.6,46.6,0,0,1,8.114-2.022c.987,2.09,2.393,3.982,3.5,6.2-1.3.185-2.486,1.477-3.811,2.618-1.037.882-2.515,2.671-3.6.96-.933-1.478-2.151-2.178-3.707-.934a9.526,9.526,0,0,0-3.292,5.289,31.521,31.521,0,0,0-5.03-8.192A72.007,72.007,0,0,1,154.637,22.029Z" fill="#999999"></path><path d="M159.3,25.192a1.777,1.777,0,0,0,2.2-1.582,4.057,4.057,0,0,0-.234-1.088,1.919,1.919,0,0,0-3.189-.182A1.865,1.865,0,0,0,159.3,25.192Z" fill="#999999"></path><path d="M142.141,71.882a26.177,26.177,0,0,0-5.133-1.711c-.26-.026-.415.259-.182.415a22.213,22.213,0,0,0,4.641,1.944c1.555.6,7.855,2.93,9.41,3.526a30.561,30.561,0,0,0,5.108,1.763.342.342,0,0,0,.259-.622C155.049,76.48,155.549,76.747,142.141,71.882Z" fill="#999999"></path><path d="M155.933,87.7c-.078.156.026.415.233.389a3.371,3.371,0,0,0,1.27-.752c.311-.311.234-.544.026-.6-3.007-.8-6.17-2.074-9.333-2.074-.233,0-.674.648-.725.881a.3.3,0,0,0,.44.337,1.309,1.309,0,0,0,.519-.544c2.644.726,5.314,1.218,7.959,1.944A.863.863,0,0,0,155.933,87.7Z" fill="#999999"></path><path d="M142.867,75.9a4.365,4.365,0,0,0-.026,2,.256.256,0,0,0,.415.051,2.011,2.011,0,0,0,.311-.855c.078-.363.155-.726.207-1.063A.46.46,0,1,0,142.867,75.9Z" fill="#999999"></path><path d="M141.882,75.641a5.941,5.941,0,0,0-.311,1.141,2.148,2.148,0,0,0-.1,1.14c.078.208.389.363.57.156a1.782,1.782,0,0,0,.26-1.037,7.014,7.014,0,0,0,.051-1.27C142.322,75.537,141.988,75.383,141.882,75.641Z" fill="#999999"></path><path d="M141.156,76.056a.244.244,0,0,0-.441-.13,4.906,4.906,0,0,0-.44,1.4c-.078.415-.26.934,0,1.3a.3.3,0,0,0,.518,0c.233-.337.13-.8.155-1.192A13.55,13.55,0,0,0,141.156,76.056Z" fill="#999999"></path><path d="M139.289,76.548a7.681,7.681,0,0,0-.337,2.152c-.026.493.674.467.752,0,.052-.363.078-.726.1-1.089a2.219,2.219,0,0,0-.026-1.011A.276.276,0,0,0,139.289,76.548Z" fill="#999999"></path><path d="M138.019,76.989a5.146,5.146,0,0,0-.207,1.245,1.572,1.572,0,0,0,.051,1.14.272.272,0,0,0,.415.052c.285-.285.233-.726.259-1.089a4.509,4.509,0,0,0-.026-1.322A.257.257,0,0,0,138.019,76.989Z" fill="#999999"></path><path d="M136.93,77.378a6.51,6.51,0,0,0-.078,2.178.324.324,0,0,0,.648,0,8.786,8.786,0,0,0-.077-2.178A.261.261,0,0,0,136.93,77.378Z" fill="#999999"></path><path d="M149.84,99.958a.283.283,0,0,0,.337.13,1.809,1.809,0,0,0,.727-.6c.285-.311-.156-.622-.338-.648-1.685-.311-3.4-.441-5.081-.648-1.218-.156-3.6-.545-4.485-.6a1.025,1.025,0,0,0-.363.1,5.066,5.066,0,0,0-.518.518c-.156.234.156.467.337.338a3.545,3.545,0,0,0,.622-.467c1.555.389,3.163.544,4.744.8,1.374.207,2.748.492,4.122.674A.362.362,0,0,0,149.84,99.958Z" fill="#999999"></path><path d="M138.045,111.417a.416.416,0,0,0,.6-.052,3.179,3.179,0,0,0,.259-.389c1.569.386,3.438.457,9.307,1.141a.382.382,0,0,0,.285.7c.519-.155.986-.519.8-1.115a.422.422,0,0,0-.389-.285c-7.721-.807-10.253-1.321-10.6-.856A2.258,2.258,0,0,0,138.045,111.417Z" fill="#999999"></path><path d="M86.429,65.531a.285.285,0,0,0,0,.57c1.3.105,28.53-.231,37.9-1.037.544-.052.57-.907,0-.882C81.982,65.738,88.9,65.188,86.429,65.531Z" fill="#999999"></path><path d="M93.48,101.384c2.233.007,23.9-.149,25.614-.311a.428.428,0,0,0,0-.855c-1.3-.08-24.19.544-25.614.6A.285.285,0,0,0,93.48,101.384Z" fill="#999999"></path><path d="M115.413,79.685a.441.441,0,0,0,0-.881c-3.422-.13-6.922.078-10.344.233-1.478.052-3.007.1-4.511.182a7.823,7.823,0,0,0-2.178-1.556c-.285-.129-.544.285-.259.441a6.4,6.4,0,0,1,1.607,1.167,43.212,43.212,0,0,0-4.536.518c-.286.052-.208.493.077.519a50.716,50.716,0,0,0,5.237-.1,11.073,11.073,0,0,1,1.4,3.292.265.265,0,0,0,.518-.077,5.3,5.3,0,0,0-1.062-3.267C110.6,79.609,109.766,79.945,115.413,79.685Z" fill="#999999"></path><path d="M52.753,105.169c1.631.35,8.944-.985,9.385-.933.414.052.518-.674.1-.726a13.5,13.5,0,0,0-3.655.519c-1.918.285-3.915.362-5.833.7A.226.226,0,0,0,52.753,105.169Z" fill="#999999"></path><path d="M67.53,94.385a2.844,2.844,0,0,0-.13,1.581,9.771,9.771,0,0,0,.13,1.737.3.3,0,0,0,.57,0,7.8,7.8,0,0,0,.1-1.737,2.958,2.958,0,0,0-.156-1.581A.3.3,0,0,0,67.53,94.385Z" fill="#999999"></path><path d="M69.267,94.281a.234.234,0,0,0-.259.078c-.363.337-.156.907-.156,1.348,0,.6-.129,1.166-.1,1.763a.259.259,0,0,0,.441.181,3.1,3.1,0,0,0,.571-1.841C69.785,95.24,69.837,94.514,69.267,94.281Z" fill="#999999"></path><path d="M70.667,94.074c-.306.542-.129.986-.026,3.447a.285.285,0,0,0,.57,0c.105-2.5.274-2.878-.026-3.447A.313.313,0,0,0,70.667,94.074Z" fill="#999999"></path><path d="M72.171,94.229a7.205,7.205,0,0,0-.1,1.659,5.556,5.556,0,0,0-.026,1.608.241.241,0,0,0,.389.1,2.827,2.827,0,0,0,.466-1.451,4.24,4.24,0,0,0-.025-1.893A.365.365,0,0,0,72.171,94.229Z" fill="#999999"></path><path d="M73.674,94.1a3.255,3.255,0,0,0-.129,1.5,7.431,7.431,0,0,0,.207,1.556.253.253,0,0,0,.492,0,6.782,6.782,0,0,0,.078-3.06A.388.388,0,0,0,73.674,94.1Z" fill="#999999"></path><path d="M69.578,86.037a3.189,3.189,0,0,0,.83.492.244.244,0,0,0,.233-.414c-.233-.26-.493-.519-.726-.778a.384.384,0,0,0-.363-.1c-1.737.6-9.955,1.789-11.692,2.852a.354.354,0,0,0,0,.622,5.653,5.653,0,0,1,.752.441c.337.207.6-.285.285-.519a1.462,1.462,0,0,0-.181-.1C63.243,87.353,69.416,86,69.578,86.037Z" fill="#999999"></path><path d="M72.4,118.131c.259.031.363-.388.129-.492-1.451-.674-3.473-.233-5.029-.129-2.281.155-4.563.284-6.818.6-.363.052-.311.518-.078.674a1.369,1.369,0,0,0,.7.337c.233.078.259-.156.233-.363C69.736,118.192,70.478,117.9,72.4,118.131Z" fill="#999999"></path><path d="M158.577,76.86a23.14,23.14,0,0,1,3.059-1.919.242.242,0,0,0-.181-.441,8.7,8.7,0,0,0-3.319,1.919C157.825,76.678,158.27,77.1,158.577,76.86Z" fill="#999999"></path><path d="M165.577,73.671a16.325,16.325,0,0,1,3.266-.882c.285-.051.208-.466-.052-.466a7.716,7.716,0,0,0-3.448.933C165.032,73.386,165.267,73.8,165.577,73.671Z" fill="#999999"></path><path d="M172.524,73.1a8.987,8.987,0,0,1,3.734,1.062c.285.13.648-.233.363-.466a5.618,5.618,0,0,0-4.1-1.089A.247.247,0,0,0,172.524,73.1Z" fill="#999999"></path><path d="M181.728,79.219a.283.283,0,0,0,.518-.208,5.288,5.288,0,0,0-2.67-2.981.256.256,0,0,0-.259.441A10.2,10.2,0,0,1,181.728,79.219Z" fill="#999999"></path><path d="M184.009,87.385c.028.233.389.207.441,0a6.671,6.671,0,0,0-.363-3.759.3.3,0,0,0-.57.156A20.61,20.61,0,0,1,184.009,87.385Z" fill="#999999"></path><path d="M178.461,94.877a8.62,8.62,0,0,1-5.418.571c-.311-.078-.544.388-.233.544,1.814.959,4.174.389,5.859-.622C178.9,95.214,178.749,94.753,178.461,94.877Z" fill="#999999"></path><path d="M170.554,94.385a2.378,2.378,0,0,1,.13-1.893c.285-.57.778-.829,1.192-1.27a.278.278,0,0,0-.181-.467c-1.159,0-2.46,1.937-1.556,3.811C170.217,94.8,170.655,94.645,170.554,94.385Z" fill="#999999"></path><path d="M174.754,90a20.936,20.936,0,0,1,5.133.182c.363.026.363-.467.078-.6a9.824,9.824,0,0,0-5.341-.1C174.262,89.563,174.417,90.054,174.754,90Z" fill="#999999"></path><path d="M182.013,90.911a.254.254,0,1,0-.13.492,6.548,6.548,0,0,1,.752.285,8.3,8.3,0,0,1-1.763,1.815c-.207.182.026.545.26.441a4.146,4.146,0,0,0,2.074-1.97,19.688,19.688,0,0,1,2.1,1.607.3.3,0,0,0,.467-.363,4.785,4.785,0,0,0-2.282-1.867c.1-.259.182-.544.26-.8a.283.283,0,0,0-.544-.156,6.024,6.024,0,0,1-.286.726C182.635,91.066,182.325,90.986,182.013,90.911Z" fill="#999999"></path><path d="M189.583,100.581a.293.293,0,0,0,.57-.078,10.243,10.243,0,0,0-2.074-5.5.274.274,0,0,0-.467.285A32.464,32.464,0,0,1,189.583,100.581Z" fill="#999999"></path><path d="M190.594,109.913a.265.265,0,0,0,.518.078,13.486,13.486,0,0,0-.1-5.937c-.078-.363-.622-.207-.545.156A34.945,34.945,0,0,1,190.594,109.913Z" fill="#999999"></path><path d="M189.324,114.658c-.234.337-.441.674-.675,1.011A8.448,8.448,0,0,0,188,116.68a.281.281,0,0,0,.441.337,5.212,5.212,0,0,0,.7-.985c.233-.363.493-.7.726-1.063C190.1,114.658,189.557,114.32,189.324,114.658Z" fill="#999999"></path><path d="M50.161,93.918a.3.3,0,0,0,.44-.337c-.155-.726-.985-1.374-1.5-1.841a7.284,7.284,0,0,0-2.515-1.763c-.207-.051-.441.182-.285.389A27.9,27.9,0,0,0,50.161,93.918Z" fill="#999999"></path><path d="M40,87.074a.24.24,0,0,0-.129.441A14,14,0,0,0,42.9,88.552a12.962,12.962,0,0,1-.415,2.177c-.1.363.415.467.544.156a12.46,12.46,0,0,0,.648-2.048,6.374,6.374,0,0,1,1.167.648c.156.1.363-.156.207-.285a11.089,11.089,0,0,0-1.3-.856,6.976,6.976,0,0,0-.259-3.577.252.252,0,0,0-.493.077c-.026,1.063,0,2.074-.077,3.085A8.773,8.773,0,0,0,40,87.074Z" fill="#999999"></path><path d="M36.965,90.237a3.237,3.237,0,0,1,.233-1.271,1.982,1.982,0,0,1,.985-.959.217.217,0,0,0-.129-.415c-1.141.234-2.308,1.608-1.633,2.8A.3.3,0,0,0,36.965,90.237Z" fill="#999999"></path><path d="M41.631,92.414a4.847,4.847,0,0,1-4.018-.544c-.233-.182-.544.1-.311.311,1.141,1.167,3.111,1.763,4.511.7A.251.251,0,0,0,41.631,92.414Z" fill="#999999"></path><path d="M41.813,82.589c.13.285.622.078.518-.207-.544-1.426-1.814-3.215-3.473-3.371-.312-.026-.338.363-.13.519C39.514,80.111,41.018,80.639,41.813,82.589Z" fill="#999999"></path><path d="M29.55,78.6a16.32,16.32,0,0,1,5.73.182.23.23,0,0,0,.129-.441,10,10,0,0,0-5.91-.259C29.213,78.156,29.24,78.626,29.55,78.6Z" fill="#999999"></path><path d="M21.151,82.952a25.581,25.581,0,0,1,5.211-3.422c.285-.13.078-.622-.208-.519a12.73,12.73,0,0,0-5.34,3.578C20.607,82.848,20.891,83.159,21.151,82.952Z" fill="#999999"></path><path d="M16.148,88.629a21.25,21.25,0,0,0,1.659-2c.57-.674,1.166-1.3,1.789-1.918.259-.234-.13-.6-.389-.389-1.271,1.089-2.852,2.359-3.552,3.94C15.577,88.578,15.892,88.867,16.148,88.629Z" fill="#999999"></path><path d="M39.246,118.546a3.143,3.143,0,0,0,.078-3.033,3.839,3.839,0,0,0-5.366-1.711,7.031,7.031,0,0,0-6.689-3.992,7.172,7.172,0,0,0-5.988,4.459c-1.789-1.193-4.2-1.685-6.067-.389a3.977,3.977,0,0,0-1.348,5.185.192.192,0,0,0,.337-.182,3.608,3.608,0,0,1,1.711-4.8,5.083,5.083,0,0,1,5.315.986.365.365,0,0,0,.6-.156,6.383,6.383,0,0,1,5.859-4.356,6.483,6.483,0,0,1,5.833,3.967.379.379,0,0,0,.519.13,3.115,3.115,0,0,1,4.07.285c1.089,1.141,1.322,3.24-.493,3.759a71.633,71.633,0,0,1-7.285.752,76.125,76.125,0,0,1-13.74-.311c-.44-.052-.44.622,0,.673a83.933,83.933,0,0,0,20.247-.207A3.193,3.193,0,0,0,39.246,118.546Z" fill="#999999"></path><path d="M61.438,47.617c5,.484,21.3-.507,29.061-.571.285,0,.285-.414,0-.466-6.092-.648-22.347,1.3-30.1,0-2.178-.363-2.852-1.66-3.008-2.385-.544-2.36,1.66-5,3.6-6.041a6.576,6.576,0,0,1,7.674,1.452.405.405,0,0,0,.674-.389c-.726-4.252,4.407-6.3,7.829-6.377A7.09,7.09,0,0,1,84.562,38.8a.4.4,0,0,0,.7.1c1.452-2.878,5.108-2.178,7.026-.259,1.607,1.607,2.981,4.588,1.892,6.844-.181.389.363.7.571.337,1.426-2.748-.363-6.429-2.515-8.218-2.074-1.711-5.392-2.022-7.129.129-1.063-3.862-4.8-6.014-8.789-5.625-3.5.337-7.751,2.437-7.855,6.248a7.3,7.3,0,0,0-10.344,1.27c-1.166,1.478-2.048,3.552-1.27,5.392C57.627,46.839,59.6,47.438,61.438,47.617Z" fill="#999999"></path><path d="M193.809,171.692c-1.839-2.05-5.652-3.422-7.622-1.141a7.668,7.668,0,0,0-15.062-.13,10.652,10.652,0,0,0-10.915,1.245c-4.077,3.077-3.843,7.208-1.555,7.751a.214.214,0,0,0,.1-.415c-1.945-.6-1.167-3.266-.389-4.485a9.9,9.9,0,0,1,12.806-3.214c.208.1.545.026.571-.233a7.223,7.223,0,0,1,7.051-6.041,7.128,7.128,0,0,1,6.689,6.663c.026.362.6.622.777.207,1.867-4.044,8.892-.285,7.778,3.474-1.141,3.837-6.974,3.707-10.137,4.018a172.58,172.58,0,0,1-21.672.337.389.389,0,0,0,0,.778,123.369,123.369,0,0,0,22.165-.285,31.111,31.111,0,0,0,6.585-1.037C194.327,178.121,196.456,174.644,193.809,171.692Z" fill="#999999"></path><path d="M125.757,58.038a4.8,4.8,0,0,1,1.477-.777,7.053,7.053,0,0,0-.311,3.811c.052.285.519.207.493-.078a10.183,10.183,0,0,1,.57-3.889,27.365,27.365,0,0,0,4.044-.337.265.265,0,0,0-.078-.518c-1.244-.026-3.681.155-3.681.155l.156-.389a.227.227,0,0,0-.389-.233,4.224,4.224,0,0,0-.441.726,5.614,5.614,0,0,0-2.2,1.14C125.109,57.883,125.475,58.251,125.757,58.038Z" fill="#999999"></path><path d="M129.671,53.528a28.9,28.9,0,0,1,4.8-5.626c.182-.156-.052-.467-.259-.337a17.474,17.474,0,0,0-4.926,5.729A.228.228,0,0,0,129.671,53.528Z" fill="#999999"></path><path d="M136.619,45.906a12.335,12.335,0,0,1,3.344-2.333,8,8,0,0,0,.674,4.459c.13.311.648.077.545-.234a7.8,7.8,0,0,1-.363-4.614,23.129,23.129,0,0,1,3.033-1.037c.285-.078.233-.545-.078-.519a9.375,9.375,0,0,0-2.67.648,3.524,3.524,0,0,1,.208-.466.285.285,0,0,0-.493-.286,3.994,3.994,0,0,0-.6,1.141,13.06,13.06,0,0,0-3.914,2.9A.23.23,0,1,0,136.619,45.906Z" fill="#999999"></path><path d="M144.137,49.976a.278.278,0,0,0-.078.544c2.956.83,5.781-2.152,5.6-5-.026-.337-.544-.337-.519,0C149.192,48.265,146.678,50,144.137,49.976Z" fill="#999999"></path><path d="M142.893,40.047a26.881,26.881,0,0,1,4.692-6.689c.259-.259-.13-.622-.389-.389a16.094,16.094,0,0,0-4.77,6.87C142.3,40.125,142.738,40.332,142.893,40.047Z" fill="#999999"></path><path d="M146.056,41.576a.241.241,0,0,0-.052.441,5.209,5.209,0,0,1,1.477.726,5.752,5.752,0,0,1,.934,1.4c.129.207.518.207.544-.078C149.192,42.743,147.4,41.084,146.056,41.576Z" fill="#999999"></path><path d="M127.805,62.757c-.1-.234-.493-.1-.467.129a3.825,3.825,0,0,0,2.567,3.189c.259.052.544-.285.285-.493A5.311,5.311,0,0,1,127.805,62.757Z" fill="#999999"></path><path d="M134.934,62.886c-.269,1.171-1.219,1.634-2.2,2.126-.259.13-.1.467.13.493,1.348.1,2.359-1.3,2.618-2.463C135.556,62.679,135.017,62.525,134.934,62.886Z" fill="#999999"></path><path d="M134.026,57.52a3.56,3.56,0,0,1,1.426,2.618.286.286,0,0,0,.571,0,3.051,3.051,0,0,0-1.737-3.085C134.026,56.95,133.824,57.333,134.026,57.52Z" fill="#999999"></path><path d="M120.468,62.731a20.594,20.594,0,0,1,1.555-1.867c.571-.6,1.271-1.037,1.867-1.581.259-.234-.078-.648-.363-.493a7.719,7.719,0,0,0-3.448,3.707C119.975,62.731,120.316,62.915,120.468,62.731Z" fill="#999999"></path><path d="M117.9,67.293a7.688,7.688,0,0,0-.129,3.811c.1.415.622.26.674-.1a10.9,10.9,0,0,0-.052-1.841,14.139,14.139,0,0,1,.078-1.815C118.524,67.034,117.981,66.957,117.9,67.293Z" fill="#999999"></path><path d="M119.2,79.971a38.495,38.495,0,0,1-.726-5.73.286.286,0,0,0-.571,0,14.17,14.17,0,0,0,.7,5.885A.308.308,0,0,0,119.2,79.971Z" fill="#999999"></path><path d="M79.248,126.609a3.315,3.315,0,0,0,.207,3.837c.156.181.415-.052.337-.26a4.18,4.18,0,0,1-.233-3.473C79.585,126.557,79.326,126.453,79.248,126.609Z" fill="#999999"></path><path d="M84.174,128.424a2.792,2.792,0,0,1-1.141,1.762,2.557,2.557,0,0,1-2.152.674c-.259-.077-.337.312-.1.389,1.7.6,4.323-1.624,3.863-2.851A.259.259,0,0,0,84.174,128.424Z" fill="#999999"></path><path d="M77.537,123.187c-2.569-.584-5.626.959-6.015,3.759-.026.285.363.415.441.129a4.905,4.905,0,0,1,5.47-3.551C77.666,123.55,77.77,123.24,77.537,123.187Z" fill="#999999"></path><path d="M70.511,130.731a9.646,9.646,0,0,0,3.137,7.6.2.2,0,0,0,.285-.286,11.286,11.286,0,0,1-2.955-7.31A.234.234,0,0,0,70.511,130.731Z" fill="#999999"></path><path d="M86.118,122.227a7.907,7.907,0,0,0-3.318,1.3,3.449,3.449,0,0,0-2.515-.7c-.207.052-.182.337,0,.415a14.233,14.233,0,0,1,1.944.674,10.98,10.98,0,0,0-1.452,1.218c-.207.182.1.467.286.285a10.127,10.127,0,0,1,1.633-1.192A3.973,3.973,0,0,1,84.174,127a.182.182,0,0,0,.363,0,4.052,4.052,0,0,0-1.3-3.085,27,27,0,0,1,2.9-1.27C86.377,122.565,86.377,122.2,86.118,122.227Z" fill="#999999"></path><path d="M92.91,117.25a18.428,18.428,0,0,1-1.477,1.582,19.371,19.371,0,0,1-1.919,1.3.229.229,0,0,0,.182.414,6.363,6.363,0,0,0,3.629-2.981C93.429,117.3,93.121,117.02,92.91,117.25Z" fill="#999999"></path><path d="M95.088,110.769a9.887,9.887,0,0,1-.467,3.992c-.078.234.285.337.363.1a6.718,6.718,0,0,0,.441-4.148C95.4,110.51,95.088,110.561,95.088,110.769Z" fill="#999999"></path><path d="M87.181,99.855a.228.228,0,0,0-.441.051,5.265,5.265,0,0,0,2.567,4.123.2.2,0,0,0,.207-.338A6.4,6.4,0,0,1,87.181,99.855Z" fill="#999999"></path><path d="M86.662,98.325a.186.186,0,0,0,.363.052,15.408,15.408,0,0,1,1.737-4.589c.1-.181-.155-.414-.311-.233A7.371,7.371,0,0,0,86.662,98.325Z" fill="#999999"></path><path d="M90.136,92.985c1.867-.83,3.552-.389,5.289.492.207.1.415-.155.233-.311a5.138,5.138,0,0,0-5.729-.518C89.7,92.751,89.9,93.088,90.136,92.985Z" fill="#999999"></path><path d="M92.962,98.636c-.26-.022-.285.363-.052.415,2.256.7,4.044-1.581,3.526-3.681-.052-.234-.389-.13-.337.1A2.707,2.707,0,0,1,92.962,98.636Z" fill="#999999"></path><path d="M91.225,98.247a.2.2,0,0,0,.233-.311,6.31,6.31,0,0,1-2.229-3.448c-.052-.181-.389-.155-.363.052A5.138,5.138,0,0,0,91.225,98.247Z" fill="#999999"></path><path d="M88.529,91.663a30.431,30.431,0,0,0-.156-4.485.246.246,0,0,0-.492,0,37.177,37.177,0,0,0,.181,4.485C88.114,91.948,88.526,91.974,88.529,91.663Z" fill="#999999"></path><path d="M90.033,79.5a8.051,8.051,0,0,0-1.608,3.733.16.16,0,0,0,.311.078,16.279,16.279,0,0,1,1.634-3.552A.214.214,0,0,0,90.033,79.5Z" fill="#999999"></path><path d="M96.721,76.652c.286.022.311-.415.078-.492A4.9,4.9,0,0,0,92,77.715c-.156.182.078.441.259.259A5.411,5.411,0,0,1,96.721,76.652Z" fill="#999999"></path><path d="M93.351,160.8c-1.322-1.555.078-2.644,1.789-3.81,3.448-2.386,6.273-5.212,7.025-5.289,1.374-.13,2.489.933,3.837.648,1.581-.337,6.377-4.848,7.855-4.719s6.2,5.7,7.881,8.634-.233,3.681-2.281,5.47a143.59,143.59,0,0,1-12.651,9.358c-1.374.908-2.411,1.789-3.993.908C101.906,171.51,93.792,161.322,93.351,160.8Z" fill="#999999"></path><path d="M166.588,131.664a16.747,16.747,0,0,0-16.048,1.063,17.406,17.406,0,0,0-17.11-12.34c.13-2.048.259-4.1.363-6.144a130.066,130.066,0,0,0,13.611,2.1,22.1,22.1,0,0,0,4.122.311c-.312,3.811-.545,7.622-.752,11.432-.026.519.778.519.8,0,.684-16.337,2.657-29.924,3.448-36.812.182.051.337.077.519.129a30.63,30.63,0,0,0,4.018.959c.182,0,.259-.207.259-.259a105.246,105.246,0,0,0,1.634-11.329c0-.441-.234-.441-.286-.466-7.708-2.234-12.587-4.531-16.487-5.211a.333.333,0,0,0-.363.155c-.026.026-.389,1.97-.493,2.9a54.876,54.876,0,0,0-7.337,2.074.337.337,0,0,0,.182.648c2.359-.648,4.744-1.219,7.077-1.893-.146,1.613-.533,5.049-.752,6.767-.026,0-4.9.57-7.155,1.114a.305.305,0,0,0,.078.6,48.891,48.891,0,0,0,7-.96c-.052.519-.1,1.037-.182,1.556-.139.972.415.394,11.666,3.059-.026.1-.026.207-.052.311a180.31,180.31,0,0,0-18.276-3.837c-.286-.026-.338.415-.078.493,3.007.752,6.092,1.244,9.125,1.918s6.041,1.478,9.074,2.126c.113,0-.453,1.843-1.426,11.252-.813-.332-16.607-2.861-18.173-2.93.493-7.933,1.685-28.18,1.815-30.254.025-.519-7.493,1.944-10.733,3.241a67.5,67.5,0,0,0-.1-8.244.35.35,0,0,0-.7,0c-.233,4.251-.052,8.555-.155,12.806-.052,2.126-.26,4.3-.13,6.43-5.807.1-34.272.337-37.383.466-.518-7.578-.466-16.693-1.245-19.08a.172.172,0,0,0-.337.052c.026,3.37.415,10.784.441,11.147a109.231,109.231,0,0,0-11.536-4.8.394.394,0,0,0-.493.363c.026,5.5.311,10.966.622,16.436-3.111.83-6.2,1.711-9.359,2.333-1.555.311-8.114,1.245-9.695,1.711-.13-1.84-.208-3.681-.363-5.5-.182-2.125-.571-6.714-.545-6.766.915-.61,15.554-6.153,18.9-7.933a.327.327,0,0,0-.259-.6c-2.9.959-5.7,2.385-8.5,3.526-2.619,1.063-5.263,2.125-7.881,3.214-.726.285-2.722.726-3.007,1.53-.156.441.959,11.588,1.322,14.7-2.2.415-4.408.83-6.585,1.348-.052,0-.337.078-.285.337a106.22,106.22,0,0,1,.829,12.548.386.386,0,0,0,.467.363c5.574-.908,11.2-1.374,16.825-1.867a.446.446,0,0,0,.415-.415c0-.518,0-1.062.026-1.581.026.026,8.4.285,8.762-.493a.275.275,0,0,0-.026-.311c-.311-.363-.933-.155-1.374-.129-.881.051-7.336.337-7.362.362.026-2.255.026-4.407-.052-6.636,1.555.026,8.373-.285,8.373-.285.617,8.433.495,8.345.623,9.877-.052,0-6.43.752-9.463.959-5.215.362-6.41.445-9.747.882,0,0-.052-.286-.078-.415-.052-.26-.493-.208-.467.052.182,3.292.648,6.559.856,9.851s.155,6.611.311,9.9a.35.35,0,1,0,.7,0c.077-1.84.026-3.707-.052-5.574a26.619,26.619,0,0,0,8.244-.285c.492-.1.285-.881-.208-.777-2.67.544-5.392.155-8.062.492A122.068,122.068,0,0,0,56.8,110.691c3.552-.311,15.166-1.244,19.158-1.607.156,3.214.337,6.455.649,9.644a17.106,17.106,0,0,0-2.308.389c-6.559,1.607-11.044,7.855-12.91,14.051-9.463-3.4-21.414-1.374-25.951,8.555-4.3,9.468,1.751,18.377,11.615,20.973,9.9,2.618,21.154-.8,21.154-.8s5.315,2.463,8.322,2.852a35.839,35.839,0,0,0,8.659.078,17.926,17.926,0,0,0,6.273-1.478c.208-.13.13-.519-.129-.493-2.717.294-6.43,1.658-13.326,1.089-4.77-.389-9.98-1.815-12.962-5.859-.129-.181-.441-.026-.311.182a11.056,11.056,0,0,0,2.826,3.162c-9.826,1.634-22.01,3.371-29.4-5.055-6.688-7.621-2.048-18.977,6.689-22.528,5.34-2.178,11.407-1.711,16.721.311a.452.452,0,0,0,.545-.311c1.685-5.885,5.781-12.055,11.977-13.766,6.118-1.685,14.129.181,17.447,6.04a.4.4,0,0,0,.726-.1A15.571,15.571,0,0,1,122.7,124.69a.439.439,0,0,0,.727.182,16.77,16.77,0,0,1,16.1-2.7,17.011,17.011,0,0,1,10.267,11.381.474.474,0,0,0,.7.285c8.253-6.032,21.46-2.233,23.591,8.814a15.64,15.64,0,0,1-3.941,13.792c-4.355,4.381-10.94,5.5-16.851,5.652-6.429.155-12.288-1.452-18.225-3.656,1.162-.859,3.663-2.859,4.278-4.251.1-.234-.13-.545-.389-.389-1.463.946-2.152,2.755-5.7,4.8-3.111,1.815-6.455,2.229-9.981,2.307-.415,0-.389.6,0,.648,3.474.389,7.8-.829,10.966-2.566a43.967,43.967,0,0,0,18.147,4.1c6.248-.026,13.144-1.089,17.94-5.445C177.943,150.786,177.042,136.467,166.588,131.664ZM151.552,89.8c-2.594-.563-5.341-1.478-8.011-1.581.026-.052.415-4.33.622-6.43.181-1.97.467-3.94.493-5.937,2.618,1.063,5.366,1.815,8.036,2.748s5.367,1.815,8.089,2.619c-.6,3.422-.96,6.9-1.582,10.318C158.188,91.014,153,90.111,151.552,89.8ZM134.6,101.021c1.683.49,17.362,3.008,18.121,2.956.095,0-.614,5.847-1.115,11.925-1.437-.351-1.39-.019-8.451-.83-3.137-.363-6.248-.881-9.359-1.348C134.193,108.074,134.39,104.747,134.6,101.021ZM66.156,107.14c-5.392.44-10.811.959-16.151,1.84a66.679,66.679,0,0,0-.881-11.8c2.125-.492,13.428-2.7,16.7-3.681A132.948,132.948,0,0,1,66.156,107.14Zm5.289-9.152c-1.5.03-3.008.052-4.537.182-.052-1.711-.182-3.423-.363-5.134a.381.381,0,0,0-.493-.362,81.069,81.069,0,0,1-10.188,2.411c-.026-.519-.1-1.012-.156-1.556A107.839,107.839,0,0,0,74.763,89.77c.1,1.711.441,7.1.518,8.114A16,16,0,0,0,71.445,97.988Zm51.693,25.225a16.36,16.36,0,0,0-31.394,1.711,13.188,13.188,0,0,0-2.567-2.8c-.389-4.848-.778-9.67-1.167-14.518,1.763-.052,3.474-.077,5.237-.026a5.827,5.827,0,0,1,.648,1.193c.1.233.493.155.389-.1a10.89,10.89,0,0,0-.492-1.14c.7.025,24.369-.571,30.072-.778C123.631,112.169,123.4,117.846,123.138,123.213Zm3.889-17.007c-6.818.415-32.924.778-33.6.752a5.412,5.412,0,0,0-2.463-2.048c-.259-.1-.389.285-.182.415a11.347,11.347,0,0,1,1.893,1.581c-2.1-.078-6.741.182-7,.182-.363-6.326-1.27-20.792-1.322-21.6.441-.026,39.794-.492,43.087-.311C127.312,92.181,127.183,99.207,127.027,106.206Z" fill="#999999"></path><path d="M76.215,140.064a.239.239,0,0,0-.337.337,14.205,14.205,0,0,0,4.925,3.344c.286.1.467-.337.208-.492A28.735,28.735,0,0,1,76.215,140.064Z" fill="#999999"></path><path d="M82.929,144.367a.2.2,0,0,0-.1.389c2.022.726,3.914,1.711,5.859,2.618a.284.284,0,0,0,.285-.492A17.138,17.138,0,0,0,82.929,144.367Z" fill="#999999"></path><path d="M91.329,148.878a.256.256,0,0,0-.259.441,17.891,17.891,0,0,1,4.2,4.3c.234.285.571-.077.467-.363A10.034,10.034,0,0,0,91.329,148.878Z" fill="#999999"></path></g></svg>