<svg width="24" height="24" viewBox="0 0 24 24" fill="none" xmlns="http://www.w3.org/2000/svg">
<g clip-path="url(#clip0_1874_2)">
<path fill-rule="evenodd" clip-rule="evenodd" d="M10.726 16H2V13H12.1617C11.4518 13.8474 10.9476 14.873 10.726 16ZM17 10.6066V8.5H2V11.5H13.9437C14.8495 10.9747 15.8896 10.6555 17 10.6066ZM5 13.75H3.5V15.25H5V13.75ZM2 7V4H17V7H2ZM3.5 6.25H5V4.75H3.5V6.25ZM5 9.25H3.5V10.75H5V9.25Z" fill="currentColor"/>
<path d="M19.8125 19.0093C19.4943 19.0093 19.2095 19.1349 18.9918 19.3317L16.0061 17.5939C16.027 17.4976 16.0438 17.4013 16.0438 17.3008C16.0438 17.2003 16.027 17.104 16.0061 17.0077L18.9583 15.2866C19.1844 15.496 19.4817 15.6258 19.8125 15.6258C20.5076 15.6258 21.0688 15.0647 21.0688 14.3695C21.0688 13.6744 20.5076 13.1133 19.8125 13.1133C19.1174 13.1133 18.5563 13.6744 18.5563 14.3695C18.5563 14.47 18.573 14.5663 18.5939 14.6627L15.6418 16.3837C15.4156 16.1743 15.1183 16.0445 14.7875 16.0445C14.0924 16.0445 13.5312 16.6057 13.5312 17.3008C13.5312 17.9959 14.0924 18.557 14.7875 18.557C15.1183 18.557 15.4156 18.4272 15.6418 18.2178L18.6233 19.9598C18.6023 20.0478 18.5898 20.1399 18.5898 20.232C18.5898 20.9062 19.1383 21.4548 19.8125 21.4548C20.4867 21.4548 21.0353 20.9062 21.0353 20.232C21.0353 19.5578 20.4867 19.0093 19.8125 19.0093Z" fill="currentColor"/>
</g>
<defs>
<clipPath id="clip0_1874_2">
<rect width="24" height="24" fill="white"/>
</clipPath>
</defs>
</svg>
