<svg width="24" height="24" viewBox="0 0 24 24" fill="none" xmlns="http://www.w3.org/2000/svg">
    <style>
        .st0 {
            fill: #FFFFFF;
        }
    </style>
<path class="st0" fill-rule="evenodd" clip-rule="evenodd" d="M13.2052 8.79845C12.4083 9.70911 10.9917 9.70911 10.1948 8.79845L8.44742 6.8014C8.08374 6.38576 8.12586 5.754 8.54149 5.39032C8.95713 5.02664 9.58889 5.06875 9.95258 5.48439L11.7 7.48144L10.9474 8.13995L11.7 7.48145L13.4474 5.48439C13.8111 5.06875 14.4429 5.02664 14.8585 5.39032C15.2741 5.754 15.3163 6.38576 14.9526 6.8014L13.2052 8.79845Z" fill="white" fill-opacity="0.5"/>
<path class="st0" fill-rule="evenodd" clip-rule="evenodd" d="M13.8875 10.9654C13.8875 10.7384 13.9647 10.5182 14.1064 10.341L19.076 4.12441C19.5995 3.46959 19.1332 2.5 18.2949 2.5H5.00188C4.16354 2.5 3.69731 3.46959 4.22078 4.12442L9.19035 10.341C9.33206 10.5182 9.40925 10.7384 9.40925 10.9654V18.6331C9.40925 18.9478 9.55745 19.2442 9.80925 19.4331L12.2875 21.2918C12.9468 21.7862 13.8875 21.3158 13.8875 20.4918V10.9654ZM8.44742 6.8014L10.1948 8.79845C10.9917 9.70911 12.4083 9.70911 13.2052 8.79845L14.9526 6.8014C15.3163 6.38576 15.2741 5.754 14.8585 5.39032C14.4429 5.02664 13.8111 5.06875 13.4474 5.48439L11.7 7.48144L9.95258 5.48439C9.58889 5.06875 8.95713 5.02664 8.54149 5.39032C8.12586 5.754 8.08374 6.38576 8.44742 6.8014Z" fill="white"/>
</svg>
