<?xml version="1.0" ?>
<svg data-name="Layer 4" id="Layer_4" viewBox="0 0 128 128" xmlns="http://www.w3.org/2000/svg">
  <defs>
    <style>.cls-1 {
      fill: white;
    }

    .cls-2 {
      fill: none;
      stroke: white;
      stroke-miterlimit: 10;
      stroke-width: 10px;
    }</style>
  </defs>
  <path class="cls-1"
        d="M74.66,26C90.48,26,102,37.52,102,53.34V74.66C102,90.48,90.48,102,74.66,102H53.34C37.52,102,26,90.48,26,74.66V53.34a27.39,27.39,0,0,1,7.73-19.58A27.39,27.39,0,0,1,53.34,26H74.66m0-10H53.34C32,16,16,32,16,53.34V74.66C16,96,32,112,53.34,112H74.66C96,112,112,96,112,74.66V53.34C112,32,96,16,74.66,16Z"/>
  <line class="cls-2" x1="107.17" x2="20.83" y1="64" y2="64"/>
  <path class="cls-1"
        d="M64,26a8.2,8.2,0,0,1,5.5,1.61,14.31,14.31,0,0,1,3.94,6.07C75.91,40.07,77.12,50,77.12,64s-1.21,23.93-3.68,30.29a14.31,14.31,0,0,1-3.94,6.07A8.2,8.2,0,0,1,64,102a8.2,8.2,0,0,1-5.5-1.61,14.31,14.31,0,0,1-3.94-6.07C52.09,87.93,50.88,78,50.88,64s1.21-23.93,3.68-30.29a14.31,14.31,0,0,1,3.94-6.07A8.2,8.2,0,0,1,64,26m0-10C44.81,16,40.88,37.51,40.88,64S44.81,112,64,112,87.12,90.49,87.12,64,83.19,16,64,16Z"/>
</svg>
