<svg version="1.1" id="Layer_1" xmlns="http://www.w3.org/2000/svg" xmlns:xlink="http://www.w3.org/1999/xlink" x="0px" y="0px"
	 viewBox="0 0 1200 1200" style="enable-background:new 0 0 1200 1200;" xml:space="preserve">
<g>
	<ellipse fill="black" transform="matrix(0.8507 -0.5257 0.5257 0.8507 -137.7153 459.6236)" cx="740.11" cy="472.2" rx="26.2" ry="26.2"/>
	<path fill="black" d="M1012.3,610.21c4.12-26.12,7.8-51.23,7.56-64.57c-0.32-17.31-13.12-28.01-28.53-28.01c-17.3,0-22.11,6.19-22.11,6.19
		s4.54,11.12,4.85,27.75c0.37,20.29-3.33,45.85-7.28,70.71c-3.64,8.91-15.68,34.38-34.34,34.38c-6.7,0-11.31-5.08-11.31-14.71
		c0-27.28,11.49-77.61,11.49-94.39c0-22.69-22.99-29.92-47.58-29.92c-11.07,0-21.57,1.52-31.97,3.14c0.15-1.07,0.3-2.12,0.44-3.17
		c3.26-24.71,14.24-33.7,25.82-33.7c8.13,0,14.84,6.91,14.84,6.91c17.94-16.29,6.05-44.8-25.49-44.8
		c-40.45,0-60.39,42.3-59.95,78.35c-9.06-0.7-18.46-2.67-28.46-6.73c0,0-12.66,37.94,20.25,44.75c0.82,0.17,1.64,0.3,2.47,0.42
		c-1.98,12.35-3.96,24.43-5.48,35.52c-1.19,7.58-2.35,15.07-3.39,22.21c-2.51,6.57-14.93,36.12-35.04,36.12
		c-6.7,0-11.31-5.08-11.31-14.71c0-28.33,11.49-67.09,11.49-94.39c0-17.31-10.18-28.01-25.94-28.01c-15.73,0-24.92,5.88-24.92,5.88
		s-6.54,22.89-25.3,22.89c-1.25-16.72-8.94-30.69-23.92-30.69c-16.44,0-25.13,11.91-25.13,26.25c0,14.35,19.24,26.63,19.24,26.63
		s-15.12,86.14-41.46,86.14c-6.7,0-11.31-5.08-11.31-14.71c0-28.33,11.49-67.09,11.49-94.39c0-17.31-10.18-28.01-25.94-28.01
		c-15.73,0-24.92,5.88-24.92,5.88s5.37,12.72,5.37,22.62c0,29.9-5.15,51.06-7.94,72.04c-2.08,5.56-14.62,36.57-35.21,36.57
		c-6.7,0-11.31-5.08-11.31-14.71c0-28.33,11.49-67.09,11.49-94.39c0-17.31-10.18-28.01-25.94-28.01c-15.73,0-24.92,5.88-24.92,5.88
		s-8.01,7.52-25.02,7.52c-18.68,0-44.22-10.2-44.22-10.2l0,0c-9.72-3.89-19.34-5.26-26.69-5.1c-54.98,1.18-77.04,56.69-75.69,98.92
		c0.15,4.81,0.85,10.26,2.14,15.98c-4.49,5.52-20.78,24.11-36.44,24.11c-7.91,0-13.12-5.08-13.12-14.71
		c0-18.13,7.77-60.79,13.17-96.78c13.18,1.3,23.77,4.28,28.57,6.92c0,0,3.06-2.37,3.06-10.42c0-9.94-11.93-17.7-28.13-22.26
		c1.04-9.08,1.65-16.88,1.55-22.54c-0.32-17.31-13.12-28.01-28.53-28.01c-17.3,0-22.11,6.19-22.11,6.19s4.54,11.12,4.85,27.75
		c0.07,3.97-0.01,8.14-0.22,12.47c-21.5,1.7-40.15,9.16-43.05,24.13c-2.47,12.74,11.55,22.51,11.55,22.51
		c8.54-6.48,18.24-10.79,28.2-13.49c-4.54,33.44-11.91,69.28-12.58,92.62c-0.74,25.93,8.13,52.01,37.42,52.01
		c33.82,0,55.42-27.31,63.18-39.13c9.83,20.64,27.74,39.1,55.81,39.1c47.6,0,82.11-44.46,79.83-103.12
		c-0.5-12.79-3-23.45-6.83-32.31c3.52,0.7,7.19,1.1,10.99,1.1c13.8,0,22.47-3.45,27.67-6.84c-0.57,38.71-9.65,62.67-9.65,91.88
		c0,24.89,9.09,49.32,38.17,49.32c24.75,0,41.37-16.86,51.7-33.33c2.71,14.23,14.46,33.35,36.32,33.35
		c57.47,0,81.31-81.18,86.97-119.26c2.26,0.06,4.59-0.04,7.02-0.36c10.8-1.46,18.96-5.54,24.71-9.65
		c-1.95,31.94-9.19,53.85-9.19,79.93c0,24.89,9.09,49.32,38.17,49.32c21.88,0,37.41-13.18,47.85-27.61
		c1.5,15.76,13.76,25.39,28.37,25.39c17.3,0,22.11-6.19,22.11-6.19s-4.54-11.12-4.85-27.75c-0.54-29.28,7.4-69.52,12.34-102.8
		c21.96-7.96,39.05-14.51,38.42,11.66c-2.12,30.89-9.06,52.43-9.06,77.98c0,24.89,9.09,49.32,38.17,49.32
		c19.1,0,33.36-10.05,43.63-22.21c-3.53,22.86-6.41,43.98-6.19,55.82c0.32,17.31,13.12,28.01,28.53,28.01
		c17.3,0,22.11-6.19,22.11-6.19s-4.54-11.12-4.85-27.75C998.27,689.14,1007.55,644.8,1012.3,610.21z M403.44,608.62
		c-3.31,30.43-18.73,51.54-35.08,51.56c-16.17,0.02-26.41-28.2-23.11-58.63c3.31-30.43,19.01-53.51,35.08-51.56
		C396.4,551.95,406.75,578.2,403.44,608.62z"/>
</g>
</svg>
