<svg xmlns="http://www.w3.org/2000/svg" xmlns:xlink="http://www.w3.org/1999/xlink" fill="none" version="1.1" width="69.89541625976562" height="70" viewBox="0 0 69.89541625976562 70"><g style="mix-blend-mode:passthrough"><g><g style="mix-blend-mode:passthrough"><path d="M45.49118302246094,26.48364641418457C40.942063022460935,29.16374641418457,37.06297302246094,35.93454641418457,37.06297302246094,41.259446414184566L37.06297302246094,52.26194641418457C38.826193022460934,49.47604641418457,41.18891302246094,47.11334641418457,43.974813022460935,45.38534641418457L68.02517302246093,31.27954641418457C69.18887302246094,30.57434641418457,69.92947302246094,29.34004641418457,69.89417302246093,27.96474641418457L69.89417302246093,12.16624641418457L45.49118302246094,26.48364641418457Z" fill="#FFFFFF" fill-opacity="1"/></g><g style="mix-blend-mode:passthrough"><path d="M37.027706146240234,65.02769123535157L37.027706146240234,69.99999123535156L50.53400614624023,62.06549123535156C51.697706146240236,61.360191235351564,52.43830614624024,60.12599123535156,52.40300614624023,58.750591235351564L52.40300614624023,45.38539123535156L46.05541614624023,49.12343123535156C41.18891614624023,51.97985123535156,37.027706146240234,59.24429123535156,37.027706146240234,65.02769123535157Z" fill="#FFFFFF" fill-opacity="1"/></g><g style="mix-blend-mode:passthrough"><path d="M63.370277575683595,11.0378L67.8135775756836,8.42821L54.30727757568359,0.528967C53.143577575683594,-0.176322,51.73297757568359,-0.176322,50.53397757568359,0.528967L39.143577575683594,7.22922L45.4911875756836,10.9673C50.28717757568359,13.7179,58.43327757568359,13.7884,63.370277575683595,11.0378Z" fill="#FFFFFF" fill-opacity="1"/></g><g style="mix-blend-mode:passthrough"><path d="M4.266999999999998,14.634762398986815L4.266999999999998,14.634762398986815L-2.505692229292961e-15,12.130982398986816L-2.505692229292961e-15,27.929482398986817C-2.505692229292961e-15,29.304782398986816,0.7052899999999974,30.574282398986817,1.8690199999999975,31.244282398986815L13.259399999999998,37.94458239898682L13.259399999999998,30.503782398986818C13.259399999999998,24.790882398986817,9.133499999999998,17.526452398986816,4.266999999999998,14.634762398986815Z" fill="#FFFFFF" fill-opacity="1"/></g><g style="mix-blend-mode:passthrough"><path d="M24.438284761047363,26.448363500366213L15.057934761047363,20.94710350036621C16.57430476104736,23.90932350036621,17.385394761047362,27.188913500366212,17.455914761047364,30.50377350036621L17.455914761047364,58.68010350036621C17.455914761047364,60.05540350036621,18.161204761047365,61.32490350036621,19.324934761047363,61.99500350036621L32.83123476104736,69.92950350036621L32.83123476104736,41.224203500366215C32.83123476104736,35.93450350036621,28.987434761047364,29.09320350036621,24.438284761047363,26.448363500366213Z" fill="#FFFFFF" fill-opacity="1"/></g><g style="mix-blend-mode:passthrough"><path d="M52.720440061187745,17.2796C49.44084006118774,17.1033,46.23174006118774,16.1864,43.37534006118774,14.5995L19.324940061187743,0.528967C18.161240061187744,-0.176322,16.750640061187745,-0.176322,15.551640061187744,0.528967L2.045340061187744,8.42821L26.518940061187745,22.7809C31.068040061187745,25.461,38.79094006118775,25.461,43.34004006118774,22.7809L52.720440061187745,17.2796Z" fill="#FFFFFF" fill-opacity="1"/></g></g></g></svg>