<?xml version="1.0" encoding="UTF-8"?>
<svg width="138px" height="138px" viewBox="0 0 138 138" version="1.1" xmlns="http://www.w3.org/2000/svg" xmlns:xlink="http://www.w3.org/1999/xlink">
    <title>icon/TimeOut</title>
    <g id="Page-1" stroke="none" stroke-width="1" fill="none" fill-rule="evenodd">
        <g id="icon/TimeOut">
            <rect id="矩形" x="0" y="0" width="138" height="138"></rect>
            <circle id="椭圆形" fill-opacity="0.16" fill="#CBCBCB" cx="69" cy="69" r="49.68"></circle>
            <path d="M100.604353,75.1613228 C86.4526827,75.1613228 74.9806353,86.6334288 74.9806353,100.785099 C74.9806353,114.936827 86.4530342,126.409284 100.604353,126.409284 C114.75614,126.409284 126.228538,114.936886 126.228538,100.785099 C126.228538,86.6334288 114.756198,75.1613228 100.604353,75.1613228 L100.604353,75.1613228 L100.604353,75.1613228 Z" id="路径" fill="#CBCBCB" fill-rule="nonzero"></path>
            <path d="M104.916488,83.6972125 L103.681546,107.903836 L97.5061325,107.903836 L96.2710732,83.6972125 L104.916488,83.6972125 L104.916488,83.6972125 L104.916488,83.6972125 Z M100.444809,119.40716 C97.7392399,119.40716 96.1514739,117.455266 96.1514739,115.112712 C96.1514739,112.60259 97.9745144,110.762096 100.503613,110.762096 C103.091281,110.762096 104.796596,112.60259 104.796596,115.112712 C104.79642,117.566665 103.091164,119.40716 100.444809,119.40716 L100.444809,119.40716 L100.444809,119.40716 Z" id="形状结合" fill="#454545" fill-rule="nonzero"></path>
            <polygon id="路径" fill="#CBCBCB" points="72.8993498 37.9796141 65.1835487 37.9631903 65.0996813 71.4187074 42.5393498 90.1583957 47.5378471 95.9231903 72.7987089 74.9334254"></polygon>
        </g>
    </g>
</svg>